<?xml version="1.0" encoding="utf-8"?>
<!-- Generator: Adobe Illustrator 27.1.1, SVG Export Plug-In . SVG Version: 6.00 Build 0)  -->
<svg version="1.1" id="graphics" xmlns="http://www.w3.org/2000/svg" xmlns:xlink="http://www.w3.org/1999/xlink" x="0px" y="0px"
	 viewBox="0 0 100 100" style="enable-background:new 0 0 100 100;" xml:space="preserve">
<style type="text/css">
	.st0{fill:#FFBF00;}
	.st1{fill:#26B5F8;}
	.st2{fill:#ED3049;}
	.st3{fill-opacity:0.25;}
</style>
<g>
	<path class="st0" d="M47.8,33.6l-15,6.2c-0.8,0.3-0.8,1.5,0,1.9l15.1,6c1.3,0.5,2.8,0.5,4.1,0l15.1-6c0.8-0.3,0.8-1.5,0-1.9
		l-15-6.2C50.8,33,49.2,33,47.8,33.6"/>
	<path class="st1" d="M51.3,50.9v14.9c0,0.7,0.7,1.2,1.4,0.9l16.8-6.5c0.4-0.2,0.6-0.5,0.6-0.9V44.4c0-0.7-0.7-1.2-1.4-0.9L52,50
		C51.6,50.1,51.3,50.5,51.3,50.9"/>
	<path class="st2" d="M47.4,51.7l-5,2.4l-0.5,0.2l-10.5,5c-0.7,0.3-1.5-0.2-1.5-0.9v-14c0-0.3,0.1-0.5,0.3-0.7
		c0.1-0.1,0.2-0.1,0.3-0.2c0.3-0.2,0.6-0.2,0.9-0.1l16,6.3C48.1,50.2,48.2,51.3,47.4,51.7"/>
	<path class="st3" d="M47.4,51.7l-5,2.4L30.2,43.8c0.1-0.1,0.2-0.1,0.3-0.2c0.3-0.2,0.6-0.2,0.9-0.1l16,6.3
		C48.1,50.2,48.2,51.3,47.4,51.7"/>
</g>
</svg>
